<svg width="32" height="33" viewBox="0 0 32 33" fill="none" xmlns="http://www.w3.org/2000/svg">
<g clip-path="url(#clip0_566_6)">
<path d="M15.7758 0.4198C15.9 0.418965 16.0061 0.50987 16.0248 0.63269L17.891 12.9569L18.0638 14.1024C18.9353 14.885 19.3931 15.7173 19.3636 16.6259C19.3376 17.4263 18.932 18.2307 18.2142 19.0585L17.9789 20.5204L16.0248 32.6346C16.005 32.7567 15.8984 32.846 15.7748 32.8446C15.6512 32.843 15.5476 32.7512 15.5306 32.6288L13.6449 19.0448C13.0879 18.2495 12.6873 17.5626 12.64 16.8153C12.592 16.0544 12.9106 15.2856 13.6449 14.3241L15.5306 0.63562L15.5404 0.590698C15.5736 0.490973 15.6674 0.420739 15.7758 0.4198ZM14.1322 14.4569C14.1262 14.5002 14.1091 14.5415 14.0824 14.576C13.3463 15.5271 13.1014 16.1891 13.139 16.7841C13.1769 17.3819 13.5006 17.9685 14.0629 18.7704C14.8189 19.2849 15.194 19.4495 15.8011 19.5067C15.9295 19.5188 16.0276 19.6268 16.0277 19.7557V29.4745L17.4857 20.4403L17.7328 18.912L17.7533 18.8446C17.7633 18.8235 17.7768 18.8037 17.7924 18.786C18.5034 17.9811 18.8424 17.2638 18.8636 16.6093C18.8871 15.8851 18.522 15.1676 17.6742 14.4247C17.324 14.1814 17.0527 14.0474 16.7787 13.9735C16.499 13.8981 16.1994 13.8802 15.7836 13.8895C15.7163 13.891 15.651 13.8653 15.6029 13.8182C15.555 13.7712 15.5277 13.7067 15.5277 13.6395V4.32117L14.1322 14.4569ZM15.8939 15.1503C16.7124 15.1503 17.3763 15.8142 17.3763 16.6327C17.3761 17.451 16.7123 18.1141 15.8939 18.1141C15.0757 18.114 14.4127 17.4509 14.4125 16.6327C14.4125 15.8143 15.0756 15.1504 15.8939 15.1503Z" fill="white"/>
</g>
<defs>
<clipPath id="clip0_566_6">
<rect width="32" height="32" fill="white" transform="translate(0 0.634644)"/>
</clipPath>
</defs>
</svg>
