<svg width="33" height="32" viewBox="0 0 33 32" fill="none" xmlns="http://www.w3.org/2000/svg">
<path d="M7.01035 4H0.461182V4.72767C1.14558 4.62911 1.54333 4.63768 2.35315 5.1279L11.4128 27.6134H12.8318V24.739L5.59136 5.1279C5.82396 4.80496 6.12464 4.70318 7.01035 4.72767V4Z" fill="white" stroke="white" stroke-width="0.25"/>
<path d="M18.6111 4.22314C26.9125 5.13836 32.246 9.81205 32.8484 14.8394C33.1594 17.4368 32.2019 20.1078 29.7634 22.3706C27.3273 24.6312 23.4151 26.4847 17.8103 27.4663L17.7995 27.4673H16.0515V26.3198L16.1882 26.3325C16.4997 26.3616 16.752 26.3771 16.9548 26.3765C17.1587 26.3758 17.3058 26.3592 17.4109 26.3267C17.5128 26.2951 17.5691 26.2509 17.6033 26.1987C17.6385 26.1447 17.6593 26.0659 17.6628 25.9468L16.4685 17.187C16.1137 16.6716 15.8642 16.2351 15.8347 15.7632C15.8049 15.284 16.0021 14.7946 16.4695 14.1733L17.6579 5.38135C17.5882 5.26874 17.4808 5.19395 17.2722 5.15088C17.0364 5.10231 16.6932 5.09639 16.1814 5.11475L16.0515 5.11963V4.146H17.7986L18.6111 4.22314ZM19.0652 13.0874L22.614 10.7319L22.7888 10.9028L20.696 14.2144L29.2253 15.5142V15.7612L20.6921 17.0425L22.7556 20.5063L22.5788 20.6733L19.1189 18.3423L17.9411 25.7817C22.6886 24.8242 26.0292 23.2731 28.1316 21.4429C30.2569 19.5924 31.1163 17.4613 30.9001 15.3647C30.6834 13.2636 29.3835 11.1713 27.1404 9.41162C24.9308 7.67838 21.8116 6.27534 17.9382 5.51025L19.0652 13.0874ZM17.7937 13.8413C17.5289 13.853 17.3447 13.8912 17.1824 13.9624C17.0211 14.0332 16.8718 14.1408 16.6804 14.3081C16.2186 14.9182 16.0592 15.3523 16.0837 15.7476C16.1086 16.1463 16.3221 16.5335 16.6804 17.0532C17.1599 17.3858 17.403 17.4969 17.7898 17.5356C18.0894 17.524 18.3036 17.4896 18.4968 17.4165C18.6888 17.3438 18.8678 17.2295 19.0954 17.0513C19.5432 16.5327 19.7633 16.0656 19.7771 15.6333C19.7924 15.1504 19.5518 14.6777 19.0105 14.1948C18.7854 14.0354 18.6092 13.9461 18.4304 13.897C18.2495 13.8474 18.0568 13.8354 17.7937 13.8413ZM17.9118 14.7036C18.4348 14.7038 18.8591 15.1279 18.8591 15.6509C18.8589 16.1737 18.4347 16.598 17.9118 16.5981C17.3888 16.5981 16.9648 16.1738 16.9646 15.6509C16.9646 15.1277 17.3887 14.7036 17.9118 14.7036Z" fill="white"/>
</svg>
