<svg width="891" height="366" viewBox="0 0 891 366" fill="none" xmlns="http://www.w3.org/2000/svg">
<path d="M0.238037 224.786H890.238V365.171H0.238037V224.786Z" fill="#FFF200"/>
<path d="M22.7092 344.373V339.174L35.7209 334.494C42.6605 331.721 48.0387 328.428 51.8555 324.615C55.6722 320.456 58.795 314.736 61.2239 307.457L168.44 0.170929H212.68L318.335 309.537C321.111 317.163 324.234 323.055 327.703 327.215C331.173 331.028 336.551 334.321 343.838 337.094L350.083 339.174V344.373H217.885V339.174L225.692 336.574C232.978 333.801 237.315 329.988 238.703 325.135C240.438 319.936 240.265 313.87 238.183 306.937L213.721 232.066H98.1772L73.1946 305.377C70.7657 313.003 69.8983 319.069 70.5923 323.575C71.6332 328.081 75.7969 331.721 83.0835 334.494L94.5339 339.174V344.373H22.7092ZM101.82 221.667H210.598L158.031 59.9644L101.82 221.667Z" fill="black"/>
<path d="M366.005 344.373V339.694L372.563 337.822C383.493 334.702 388.957 327.059 388.957 314.892V168.425C388.957 161.561 387.865 156.57 385.679 153.45C383.493 150.019 379.277 147.679 373.031 146.431L366.005 144.559V139.88L446.105 112.739L450.789 117.418L454.537 145.495C465.466 135.824 477.802 127.869 491.542 121.63C505.282 115.39 518.867 112.271 532.295 112.271C552.905 112.271 568.675 117.886 579.605 129.117C590.847 140.348 596.468 157.506 596.468 180.591V315.36C596.468 327.527 602.402 335.17 614.268 338.29L618.484 339.694V344.373H507.937V339.694L514.026 337.822C524.956 334.39 530.421 326.747 530.421 314.892V165.617C530.421 145.651 520.428 135.668 500.442 135.668C486.701 135.668 471.712 142.532 455.473 156.258V315.36C455.473 327.527 460.938 335.17 471.868 338.29L476.084 339.694V344.373H366.005Z" fill="black"/>
<path d="M702.039 351.392C683.927 351.392 668.625 346.245 656.134 335.95C643.955 325.655 637.866 310.837 637.866 291.495C637.866 276.833 645.361 263.418 660.35 251.251C675.34 238.773 698.917 229.414 731.082 223.175C736.078 222.239 741.699 221.303 747.945 220.367C754.19 219.119 760.748 217.871 767.619 216.623V179.655C767.619 158.442 764.964 143.623 759.655 135.2C754.659 126.465 746.696 122.098 735.766 122.098C728.271 122.098 722.338 124.593 717.966 129.585C713.594 134.264 710.783 142.531 709.534 154.386L708.597 159.534C707.973 172.948 704.694 182.775 698.76 189.014C692.827 195.254 685.489 198.373 676.745 198.373C668.626 198.373 661.911 195.877 656.603 190.886C651.294 185.895 648.64 179.188 648.64 170.764C648.64 157.974 653.011 147.211 661.755 138.476C670.811 129.741 682.678 123.19 697.355 118.822C712.032 114.455 727.959 112.271 745.134 112.271C772.927 112.271 794.319 119.134 809.308 132.861C824.61 146.275 832.261 168.269 832.261 198.841V302.258C832.261 316.296 838.819 323.315 851.935 323.315H862.24L866.456 327.059C860.522 334.546 853.964 340.317 846.782 344.373C839.912 348.429 830.075 350.456 817.271 350.456C803.531 350.456 792.601 347.337 784.482 341.097C776.675 334.546 771.522 325.967 769.024 315.36C759.655 325.343 749.975 333.922 739.982 341.097C730.301 347.961 717.654 351.392 702.039 351.392ZM730.613 322.847C736.859 322.847 742.636 321.444 747.945 318.636C753.566 315.516 760.124 310.837 767.619 304.597V225.982C764.496 226.606 761.373 227.23 758.25 227.854C755.127 228.478 751.536 229.102 747.476 229.726C733.111 233.469 721.557 239.865 712.813 248.912C704.382 257.647 700.166 269.502 700.166 284.476C700.166 297.266 703.133 306.937 709.066 313.489C714.999 319.728 722.182 322.847 730.613 322.847Z" fill="black"/>
</svg>
