<svg width="890" height="366" viewBox="0 0 890 366" fill="none" xmlns="http://www.w3.org/2000/svg">
<path d="M0 224.786H890V365.171H0V224.786Z" fill="#C5BB00"/>
<path d="M22.4712 344.373V339.174L35.4828 334.494C42.4224 331.721 47.8005 328.428 51.6173 324.615C55.4341 320.456 58.5569 314.737 60.9857 307.457L168.202 0.171234H212.442L318.097 309.537C320.873 317.163 323.995 323.056 327.465 327.215C330.935 331.028 336.313 334.321 343.6 337.094L349.845 339.174V344.373H217.647V339.174L225.453 336.574C232.74 333.801 237.077 329.988 238.465 325.135C240.2 319.936 240.027 313.87 237.945 306.937L213.483 232.066H97.939L72.9564 305.378C70.5276 313.003 69.6602 319.069 70.3541 323.576C71.3951 328.082 75.5588 331.721 82.8453 334.494L94.2957 339.174V344.373H22.4712ZM101.582 221.667H210.36L157.793 59.9647L101.582 221.667Z" fill="white"/>
<path d="M365.767 344.373V339.694L372.325 337.822C383.255 334.702 388.719 327.059 388.719 314.893V168.425C388.719 161.561 387.627 156.57 385.441 153.45C383.255 150.019 379.039 147.679 372.793 146.431L365.767 144.559V139.88L445.867 112.739L450.551 117.418L454.298 145.495C465.228 135.824 477.563 127.869 491.304 121.63C505.044 115.391 518.628 112.271 532.056 112.271C552.667 112.271 568.437 117.886 579.367 129.117C590.609 140.348 596.23 157.506 596.23 180.591V315.36C596.23 327.527 602.163 335.17 614.03 338.29L618.246 339.694V344.373H507.698V339.694L513.788 337.822C524.718 334.39 530.182 326.747 530.182 314.893V165.617C530.182 145.651 520.19 135.668 500.204 135.668C486.463 135.668 471.474 142.532 455.235 156.258V315.36C455.235 327.527 460.7 335.17 471.63 338.29L475.846 339.694V344.373H365.767Z" fill="white"/>
<path d="M701.801 351.392C683.689 351.392 668.387 346.245 655.896 335.95C643.717 325.655 637.628 310.837 637.628 291.495C637.628 276.833 645.122 263.418 660.112 251.252C675.101 238.773 698.678 229.414 730.843 223.175C735.84 222.239 741.461 221.303 747.706 220.367C753.952 219.119 760.51 217.871 767.38 216.623V179.655C767.38 158.442 764.726 143.623 759.417 135.2C754.42 126.465 746.457 122.098 735.527 122.098C728.032 122.098 722.099 124.593 717.727 129.585C713.355 134.264 710.545 142.531 709.296 154.386L708.359 159.534C707.734 172.948 704.455 182.775 698.522 189.014C692.589 195.254 685.25 198.373 676.506 198.373C668.387 198.373 661.673 195.878 656.364 190.886C651.056 185.895 648.401 179.187 648.401 170.764C648.401 157.974 652.773 147.211 661.517 138.476C670.573 129.741 682.44 123.19 697.117 118.822C711.794 114.455 727.72 112.271 744.896 112.271C772.689 112.271 794.08 119.134 809.069 132.861C824.371 146.275 832.022 168.269 832.022 198.841V302.258C832.022 316.296 838.58 323.316 851.696 323.316H862.001L866.217 327.059C860.284 334.546 853.726 340.318 846.543 344.373C839.673 348.429 829.836 350.457 817.033 350.457C803.292 350.457 792.362 347.337 784.243 341.098C776.436 334.546 771.284 325.967 768.785 315.36C759.417 325.343 749.736 333.922 739.743 341.098C730.062 347.961 717.415 351.392 701.801 351.392ZM730.375 322.848C736.62 322.848 742.397 321.444 747.706 318.636C753.327 315.516 759.885 310.837 767.38 304.598V225.982C764.257 226.606 761.134 227.23 758.012 227.854C754.889 228.478 751.298 229.102 747.238 229.726C732.873 233.47 721.318 239.865 712.575 248.912C704.143 257.647 699.927 269.502 699.927 284.476C699.927 297.267 702.894 306.937 708.827 313.489C714.761 319.728 721.943 322.848 730.375 322.848Z" fill="white"/>
</svg>
