<svg width="300" height="420" viewBox="0 0 300 420" xmlns="http://www.w3.org/2000/svg">
  <!-- Card Background -->
  <defs>
    <linearGradient id="galaxyGradient" x1="0%" y1="0%" x2="100%" y2="100%">
      <stop offset="0%" stop-color="#2e1065" />
      <stop offset="50%" stop-color="#4c1d95" />
      <stop offset="100%" stop-color="#1e3a8a" />
    </linearGradient>
    
    <radialGradient id="star1" cx="50%" cy="50%" r="50%" fx="50%" fy="50%">
      <stop offset="0%" stop-color="white" stop-opacity="0.9" />
      <stop offset="100%" stop-color="white" stop-opacity="0" />
    </radialGradient>
    
    <radialGradient id="nebula1" cx="50%" cy="50%" r="50%" fx="50%" fy="50%">
      <stop offset="0%" stop-color="#a855f7" stop-opacity="0.5" />
      <stop offset="100%" stop-color="#a855f7" stop-opacity="0" />
    </radialGradient>
    
    <radialGradient id="nebula2" cx="50%" cy="50%" r="50%" fx="50%" fy="50%">
      <stop offset="0%" stop-color="#3b82f6" stop-opacity="0.5" />
      <stop offset="100%" stop-color="#3b82f6" stop-opacity="0" />
    </radialGradient>
    
    <filter id="noise" x="0%" y="0%" width="100%" height="100%">
      <feTurbulence type="fractalNoise" baseFrequency="0.65" numOctaves="3" stitchTiles="stitch" result="noise"/>
      <feColorMatrix type="matrix" values="1 0 0 0 0 0 1 0 0 0 0 0 1 0 0 0 0 0 0.5 0" in="noise" result="colorNoise"/>
      <feBlend mode="overlay" in="SourceGraphic" in2="colorNoise" result="blend"/>
    </filter>
  </defs>
  
  <!-- Galaxy background -->
  <rect width="300" height="420" rx="15" fill="url(#galaxyGradient)" />
  
  <!-- Apply noise texture -->
  <rect width="300" height="420" rx="15" fill="url(#galaxyGradient)" opacity="0.4" filter="url(#noise)" />
  
  <!-- Nebula effects -->
  <circle cx="100" cy="150" r="80" fill="url(#nebula1)" opacity="0.4" />
  <circle cx="200" cy="280" r="70" fill="url(#nebula2)" opacity="0.3" />
  
  <!-- Stars -->
  <g opacity="0.8">
    <circle cx="50" cy="60" r="1" fill="white" />
    <circle cx="80" cy="120" r="1" fill="white" />
    <circle cx="150" cy="40" r="1" fill="white" />
    <circle cx="210" cy="80" r="1" fill="white" />
    <circle cx="260" cy="130" r="1" fill="white" />
    <circle cx="30" cy="180" r="1" fill="white" />
    <circle cx="90" cy="220" r="1" fill="white" />
    <circle cx="160" cy="170" r="1" fill="white" />
    <circle cx="230" cy="210" r="1" fill="white" />
    <circle cx="280" cy="260" r="1" fill="white" />
    <circle cx="40" cy="310" r="1" fill="white" />
    <circle cx="120" cy="350" r="1" fill="white" />
    <circle cx="190" cy="300" r="1" fill="white" />
    <circle cx="240" cy="340" r="1" fill="white" />
    <circle cx="270" cy="390" r="1" fill="white" />
  </g>
  
  <!-- Card back pattern -->
  <rect x="40" y="60" width="220" height="300" rx="10" stroke="rgba(255,255,255,0.2)" stroke-width="2" fill="none" />
  <rect x="70" y="90" width="160" height="240" rx="5" stroke="rgba(255,255,255,0.3)" stroke-width="1" fill="none" />
  
  <!-- Center emblem -->
  <text x="150" y="210" font-family="Arial" font-size="40" fill="rgba(255,255,255,0.4)" text-anchor="middle">♠</text>
</svg>
